<?xml version="1.0" encoding="utf-8"?>
<!-- Generator: Adobe Illustrator 21.1.0, SVG Export Plug-In . SVG Version: 6.00 Build 0)  -->
<svg version="1.1" id="레이어_1" xmlns="http://www.w3.org/2000/svg" xmlns:xlink="http://www.w3.org/1999/xlink" x="0px"
	 y="0px" viewBox="0 0 518 235" style="enable-background:new 0 0 518 235;" xml:space="preserve">
<style type="text/css">
	.st0{fill:#FFFFFF;}
	.st1{fill:#E03131;}
	.st2{fill:#FCC419;}
	.st3{fill:#329AF0;}
</style>
<g>
	<g>
		<path class="st0" d="M60,144.2V86.2h10.6v58.1H60z"/>
		<path class="st0" d="M128.8,135.7c0,13.4-2.8,21.5-8.3,26.6c-5.8,5.2-13.9,7-21.2,7c-7,0-14.7-1.7-19.3-4.8l2.6-8.2
			c3.8,2.5,9.8,4.7,17,4.7c10.8,0,18.7-5.6,18.7-20.4v-6.4h-0.2c-3.1,5.4-9.5,9.7-18.5,9.7c-14.4,0-24.7-12.2-24.7-28.4
			c0-19.7,12.8-30.7,26.3-30.7c10.1,0,15.5,5.2,18.1,10h0.2l0.4-8.6h9.4c-0.4,4.1-0.5,8.8-0.5,15.8V135.7z M118.2,109
			c0-1.7-0.1-3.2-0.6-4.7c-1.9-6.2-7-11.3-14.8-11.3c-10.1,0-17.3,8.5-17.3,22.1c0,11.3,5.9,20.9,17.2,20.9
			c6.6,0,12.5-4.1,14.6-10.9c0.6-1.7,0.8-3.7,0.8-5.6V109z"/>
		<path class="st0" d="M178.1,130.3c0,5,0.2,10,0.8,13.9h-9.5l-1-7.3h-0.4c-3.1,4.6-9.5,8.6-17.8,8.6c-11.8,0-17.8-8.3-17.8-16.7
			c0-14,12.5-21.7,34.9-21.6v-1.2c0-4.8-1.3-13.6-13.2-13.4c-5.5,0-11.2,1.6-15.2,4.3l-2.4-7.1c4.8-3,11.9-5,19.2-5
			c17.9,0,22.2,12.1,22.2,23.8V130.3z M167.8,114.6c-11.5-0.2-24.6,1.8-24.6,13.1c0,7,4.6,10.1,9.8,10.1c7.7,0,12.6-4.8,14.3-9.7
			c0.4-1.1,0.5-2.3,0.5-3.4V114.6z"/>
		<path class="st0" d="M197.2,85.6l4.8,24.1c1.1,6,2.3,12.5,3.2,19.2h0.4c1.1-6.6,2.9-13.3,4.2-19.1l6.2-24.2h14.4l5.9,23.4
			c1.7,6.7,3.2,13.2,4.3,19.9h0.2c0.8-6.6,2-13.3,3.5-20l4.9-23.3h17.9l-18,58.7h-17l-5.5-20.5c-1.6-5.8-2.7-11-3.8-18.3h-0.2
			c-1.1,7.3-2.3,12.8-3.7,18.2l-5.9,20.6h-17.2l-17.2-58.7H197.2z"/>
		<path class="st0" d="M292.1,145.6c-17.2,0-30.4-11.3-30.4-30.2c0-18.9,12.5-31.1,31.4-31.1c17.9,0,29.9,12.4,29.9,30.1
			c0,21.4-15.2,31.2-30.8,31.2H292.1z M292.5,132.5c7.2,0,11.6-7.1,11.6-17.6c0-8.6-3.4-17.5-11.6-17.5c-8.6,0-12,8.9-12,17.6
			c0,10,4.2,17.5,11.9,17.5H292.5z"/>
		<path class="st0" d="M442.6,108.5c-7.2-2.5-9.5-4-9.5-6.8c0-2.9,2.5-4.7,7-4.7c4.9,0,10.1,1.9,12.7,3.2l3.1-12.5
			c-3.6-1.8-9.6-3.5-16.5-3.5c-14.5,0-23.9,8.3-23.9,19.3c-0.1,6.8,4.6,13.6,16.8,17.5c6.7,2.3,8.5,3.7,8.5,6.8c0,3-2.3,4.8-7.8,4.8
			c-5.4,0-12.4-2.3-15.7-4.3l-1.9,7.8L397,109.3l21-23.8h-22l-11.9,17.8c-1.4,2.2-2.9,4.6-4.2,7.1h-0.2V59.1h-18.2v25.6
			c-1.3-0.2-2.2-0.4-3.8-0.4c-5.8,0-12.8,3.6-15.8,12.2h-0.5l-0.7-10.9H325c0.4,5,0.5,10.7,0.5,19.3l-0.1,39.3h18.2v-29.6
			c0-1.6,0.1-2.9,0.4-4.1c1.2-5.8,5.8-9.2,12.5-9.2c2,0,3.5,0.2,5,0.5v42.5h18.2V126l4.6-5.9l14.3,24.1H421l-0.2-0.3
			c3.6,1,7.8,1.6,12.3,1.6c16.8,0,25.3-8,25.3-19.1C458.3,118,453.8,112.2,442.6,108.5z"/>
		<path class="st1" d="M65.1,71.9c-4,0-6.6-3.1-6.6-6.8s2.8-6.7,6.8-6.7c4.1,0,6.7,3,6.7,6.7s-2.7,6.8-6.9,6.8H65.1z"/>
		<path class="st2" d="M109.3,71.9c-4,0-6.6-3.1-6.6-6.8s2.8-6.7,6.8-6.7c4.1,0,6.7,3,6.7,6.7s-2.6,6.8-6.8,6.8H109.3z"/>
		<path class="st3" d="M153.6,71.9c-4,0-6.6-3.1-6.6-6.8s2.8-6.7,6.8-6.7c4.1,0,6.7,3,6.7,6.7s-2.6,6.8-6.8,6.8H153.6z"/>
	</g>
</g>
</svg>
